<svg xmlns="http://www.w3.org/2000/svg" fill="none" viewBox="0 0 24 24" id="Data-Usage--Streamline-Sharp-Material" height="24" width="24">
  <desc>
    Data Usage Streamline Icon: https://streamlinehq.com
  </desc>
  <path fill="#000000" d="M12 22c-1.36665 0 -2.65835 -0.2625 -3.875 -0.7875 -1.21665 -0.525 -2.27915 -1.2375 -3.1875 -2.1375 -0.908335 -0.9 -1.625 -1.95835 -2.15 -3.175C2.2625 14.6833 2 13.39165 2 12.025c0 -2.63335 0.8875 -4.9 2.6625 -6.8 1.775 -1.90001 3.97915 -2.95001 6.6125 -3.15001v2.55c-1.91665 0.18333 -3.51665 0.97916 -4.8 2.38751 -1.28335 1.4083 -1.925 3.07915 -1.925 5.0125 0 2.06665 0.725 3.8208 2.175 5.2625C8.175 18.72915 9.93335 19.45 12 19.45c1.2 0 2.33335 -0.27085 3.4 -0.8125 1.06665 -0.5417 1.975 -1.3042 2.725 -2.2875l2.2 1.275c-0.96665 1.3833 -2.17915 2.4583 -3.6375 3.225C15.22915 21.61665 13.66665 22 12 22Zm9.05 -5.725 -2.2 -1.225c0.2 -0.5167 0.35 -1.0292 0.45 -1.5375 0.1 -0.50835 0.15 -1.0125 0.15 -1.5125 0 -1.93335 -0.6375 -3.60835 -1.9125 -5.025 -1.275 -1.4167 -2.8625 -2.208345 -4.7625 -2.37501v-2.55c2.61665 0.18333 4.80835 1.22083 6.575 3.11251C21.11665 7.05415 22 9.3 22 11.9c0 0.75 -0.07915 1.4875 -0.2375 2.2125 -0.15835 0.725 -0.39585 1.4458 -0.7125 2.1625Z" stroke-width="0.5"></path>
</svg>