<svg id="Sustainability--Streamline-Carbon" xmlns="http://www.w3.org/2000/svg" viewBox="0 0 16 16" height="16" width="16">
  <desc>
    Sustainability Streamline Icon: https://streamlinehq.com
  </desc>
  <defs></defs>
  <path d="M10.7854 13.87475C9.912 14.28955 8.97485 14.5 8 14.5 4.4159 14.5 1.5 11.584 1.5 8c0 -1.5376 0.52855 -2.9895 1.5 -4.1538V5h1V2H1v1h1.4208C1.18315 4.37695 0.5 6.1311 0.5 8c0 4.1355 3.3645 7.5 7.5 7.5 1.1245 0 2.20595 -0.2429 3.2146 -0.7219l-0.4292 -0.9033Z" fill="#000000" stroke-width="0.5"></path>
  <path d="M10.5 4.5c-1.5801 0 -2.87575 1.2285 -2.9889 2.78025C6.9784 6.79735 6.27415 6.5 5.5 6.5H3.5v2c0 1.6543 1.34585 3 3 3h1v2h1v-4.00025L9.5 9.5c1.65415 0 3 -1.3457 3 -3V4.5h-2Zm-4 6c-1.1028 0 -2 -0.8972 -2 -2v-1h1c1.1028 0 2 0.8972 2 2v0.29295l-1.1465 -1.1465 -0.70705 0.70705L6.79295 10.5H6.5Zm5 -4c0 1.1028 -0.8972 2 -2 2h-0.29295l1.1465 -1.1465 -0.70705 -0.70705L8.5 7.79295V7.5c0 -1.1028 0.8972 -2 2 -2h1v1Z" fill="#000000" stroke-width="0.5"></path>
  <path d="M15.5 8c0 -4.1355 -3.3645 -7.5 -7.5 -7.5 -1.1245 0 -2.20595 0.2429 -3.2146 0.7219l0.4292 0.9033C6.088 1.7104 7.02515 1.49995 8 1.49995c3.5841 0 6.5 2.916 6.5 6.5 0 1.5376 -0.52855 2.9895 -1.5 4.1538v-1.1538h-1v3h3v-1h-1.4208C14.81685 11.623 15.5 9.86885 15.5 7.99995Z" fill="#000000" stroke-width="0.5"></path>
  <g id="_Transparent_Rectangle_">
    <path d="M0 0h16v16H0Z" fill="none" stroke-width="0.5"></path>
  </g>
</svg>